<svg xmlns="http://www.w3.org/2000/svg" width="300" height="85" viewBox="0 0 300 85">
  <defs>
    <style>
      .cls-1 {
        fill: rgba(255,255,255,0);
      }

      .cls-2, .cls-3 {
        fill: #fff;
      }

      .cls-2 {
        fill-rule: evenodd;
      }
    </style>
  </defs>
  <g id="logo-scenario" transform="translate(-42 -380)">
    <rect id="box-seguranca" class="cls-1" width="300" height="85" transform="translate(42 380)"/>
    <path id="scenario_type" class="cls-2" d="M225.9,0,232.2.02V4.255H225.9Zm50.025,0a7.711,7.711,0,0,1,3.711.977,6.919,6.919,0,0,1,2.82,2.79,7.577,7.577,0,0,1,.015,7.54,6.983,6.983,0,0,1-2.791,2.8,7.581,7.581,0,0,1-7.516,0,7.027,7.027,0,0,1-2.8-2.8,7.554,7.554,0,0,1,.014-7.54,6.991,6.991,0,0,1,2.827-2.79A7.721,7.721,0,0,1,275.922,0m0,1.25a6.462,6.462,0,0,0-3.1.816A5.843,5.843,0,0,0,270.465,4.4a6.278,6.278,0,0,0-.015,6.283,5.936,5.936,0,0,0,2.336,2.333,6.289,6.289,0,0,0,6.266,0,5.893,5.893,0,0,0,2.334-2.333,6.317,6.317,0,0,0-.017-6.283,5.805,5.805,0,0,0-2.357-2.333,6.461,6.461,0,0,0-3.09-.816m-3.316,10.469V3.607H275.4a6.785,6.785,0,0,1,2.072.225,2.009,2.009,0,0,1,1.026.785,2.086,2.086,0,0,1,.379,1.189,2.142,2.142,0,0,1-.639,1.546,2.522,2.522,0,0,1-1.69.742,2.179,2.179,0,0,1,.69.43,9.082,9.082,0,0,1,1.2,1.608l.991,1.587h-1.591l-.724-1.276a6.519,6.519,0,0,0-1.377-1.892,1.675,1.675,0,0,0-1.049-.273h-.771v3.441Zm1.311-4.568h1.592a2.586,2.586,0,0,0,1.557-.338,1.151,1.151,0,0,0,.215-1.538,1.182,1.182,0,0,0-.554-.422,4.178,4.178,0,0,0-1.318-.14h-1.492ZM95.2,8.488c4.61.008,9.377,2.686,10.563,7.549l-6.046,1.635a6.383,6.383,0,0,0-12.765.026V33.15a6.383,6.383,0,0,0,12.765.038l6.012,1.61c-1.521,5.164-5.911,7.564-10.544,7.564h-3.7c-5.9,0-10.844-4.47-10.844-9.807l0-14.261c.015-4.872,4.115-9.672,10.839-9.807Zm93.1,12.588h-8.221c-5.065,0-10.857,3.655-10.857,9.4v2.082c0,5.762,5.311,9.808,10.707,9.806l3.831,0a12.331,12.331,0,0,0,4.54-.909v.91h6.328c0-8.141,0-15.928,0-24.07,0-5.174-4.519-9.8-10.867-9.8h-3.693a11.309,11.309,0,0,0-8.268,3.477l5.407,1.448a6.38,6.38,0,0,1,11.094,3.822ZM139.6,42.362h6.3l0-24.661a6.385,6.385,0,1,1,12.771,0V42.361h6.305V18.292c0-4.943-4.142-9.8-10.845-9.8h-3.693a11.678,11.678,0,0,0-4.54.907V8.488h-6.3ZM249.261,11.314a6.4,6.4,0,0,1,6.368,6.358v15.5a6.387,6.387,0,0,1-12.773-.027V17.7a6.425,6.425,0,0,1,6.4-6.385m-32.991,2.1a6.363,6.363,0,0,0-4.694-2.1,6.13,6.13,0,0,0-6.415,6.03V42.363h-6.306V8.488h6.306V9.4a11.689,11.689,0,0,1,4.54-.907l3.7,0a11.568,11.568,0,0,1,8.371,3.451ZM175.539,33.15a6.386,6.386,0,0,0,12.755.463V23.9h-6.368a6.405,6.405,0,0,0-6.387,6.385Zm-46.5-9.248V17.7a6.386,6.386,0,1,0-12.772,0v6.2ZM116.264,33.15a6.384,6.384,0,0,0,12.767.032l6.019,1.613c-1.142,4.723-5.849,7.567-10.553,7.567H120.8c-4.815,0-10.844-3.491-10.844-9.807V18.293c0-4.775,4.144-9.8,10.846-9.807l3.695,0c4.2,0,10.72,2.679,10.843,9.807v8.431l-19.078,0ZM70.076,9.193A6.5,6.5,0,0,0,63.649,2.84a6.4,6.4,0,0,0-6.386,6.386c0,5.885,4.906,8.757,9.239,11.571,5.813,3.775,13.184,9.313,8.432,16.672a11.176,11.176,0,0,1-9.439,4.89l-3.711,0c-4.731-.007-10.785-3.351-10.79-8.7l0-3,6.351-1.7v4.7c0,3.285,3.326,5.874,6.306,5.874a6.408,6.408,0,0,0,6.383-6.19c-.136-5.888-4.74-8.922-9.341-11.954-5.659-3.728-12.7-9.609-8.261-16.484A11.125,11.125,0,0,1,61.8.016h3.711c4.63.007,9.327,2.9,10.57,7.567Zm177.322-.7h3.693c5.474,0,10.842,3.674,10.844,9.8l0,14.262c0,3.992-3.273,9.808-10.842,9.807h-3.7c-3.624,0-10.845-2.484-10.845-9.8l0-14.261c0-7.054,6.581-9.807,10.847-9.809M232.2,42.362H225.9V8.487H232.2Z" transform="translate(44 389)"/>
    <path id="icon" class="cls-2" d="M18.451,6.922A19.359,19.359,0,0,1,25.9,8.4a6.109,6.109,0,1,1,7.846,6.184A16.617,16.617,0,0,1,36.9,24.309c0,9.6-8.261,17.387-18.45,17.387S0,33.909,0,24.309,8.263,6.922,18.451,6.922M25.89,8.683c-4.653-1.331-9.484.169-11.691,3.98-2.681,4.632-.474,10.926,4.929,14.055S31.091,28.628,33.772,24a9.38,9.38,0,0,0-.233-9.357,6.118,6.118,0,0,1-7.65-5.914Z" transform="translate(54 388.223)"/>
    <path id="automation_type" class="cls-3" d="M51.564,67.385,55.623,56.7h1.539l4.309,10.684H59.877l-1.224-3.238H54.2L53.05,67.385ZM54.609,63h3.6l-1.1-2.962c-.333-.9-.584-1.644-.758-2.231a15.406,15.406,0,0,1-.584,2.057Zm27.613-6.3h1.4v6.17a7.439,7.439,0,0,1-.36,2.559,3.133,3.133,0,0,1-1.3,1.54,4.575,4.575,0,0,1-2.468.594,5.008,5.008,0,0,1-2.427-.517,2.934,2.934,0,0,1-1.347-1.5,7.236,7.236,0,0,1-.4-2.679V56.7h1.4v6.168a6.087,6.087,0,0,0,.256,2.052,1.945,1.945,0,0,0,.877,1.017,3.007,3.007,0,0,0,1.52.357,2.892,2.892,0,0,0,2.192-.705,4.131,4.131,0,0,0,.652-2.721Zm19.142,10.684v-9.43H97.877V56.7h8.378v1.254h-3.487v9.43Zm18.353-5.2a5.837,5.837,0,0,1,1.416-4.161,4.789,4.789,0,0,1,3.653-1.5,5.046,5.046,0,0,1,2.643.706,4.594,4.594,0,0,1,1.793,1.97,6.435,6.435,0,0,1,.618,2.862,6.333,6.333,0,0,1-.65,2.9,4.449,4.449,0,0,1-1.84,1.94,5.218,5.218,0,0,1-2.571.659,4.979,4.979,0,0,1-2.673-.728,4.679,4.679,0,0,1-1.783-1.987,6.06,6.06,0,0,1-.606-2.664m1.448.025a4.3,4.3,0,0,0,1.028,3.037,3.569,3.569,0,0,0,5.179-.01,4.555,4.555,0,0,0,1.019-3.179,5.5,5.5,0,0,0-.435-2.273,3.378,3.378,0,0,0-1.276-1.505,3.456,3.456,0,0,0-1.887-.534,3.559,3.559,0,0,0-2.556,1.029,4.619,4.619,0,0,0-1.072,3.435m23.156,5.175V56.7h2.1l2.5,7.562c.232.705.4,1.232.505,1.583q.182-.582.566-1.714l2.548-7.431h1.874V67.385h-1.346V58.447l-3.088,8.938h-1.26l-3.055-9.1v9.1Zm23.89,0,4.06-10.684h1.539l4.308,10.684h-1.594L175.3,64.147h-4.456L169.7,67.385ZM171.256,63h3.606l-1.1-2.962c-.333-.9-.583-1.644-.758-2.231a15.406,15.406,0,0,1-.584,2.057Zm22.277,4.387v-9.43h-3.489V56.7h8.38v1.254h-3.488v9.43ZM212.816,56.7h1.4V67.385h-1.4Zm16.152,5.484a5.829,5.829,0,0,1,1.416-4.161,4.788,4.788,0,0,1,3.652-1.5,5.044,5.044,0,0,1,2.643.706,4.6,4.6,0,0,1,1.794,1.97,6.435,6.435,0,0,1,.618,2.862,6.321,6.321,0,0,1-.651,2.9,4.444,4.444,0,0,1-1.84,1.94,5.216,5.216,0,0,1-2.571.659,4.978,4.978,0,0,1-2.672-.728,4.681,4.681,0,0,1-1.784-1.987,6.073,6.073,0,0,1-.6-2.664m1.448.025a4.29,4.29,0,0,0,1.028,3.037,3.569,3.569,0,0,0,5.179-.01,4.555,4.555,0,0,0,1.019-3.179,5.5,5.5,0,0,0-.436-2.273,3.37,3.37,0,0,0-1.275-1.505,3.459,3.459,0,0,0-1.887-.534,3.559,3.559,0,0,0-2.557,1.029,4.623,4.623,0,0,0-1.071,3.435m23.171,5.175V56.7h1.439l5.551,8.386V56.7h1.345V67.385h-1.439L254.932,59v8.386Z" transform="translate(44 386.097)"/>
  </g>
</svg>
